<svg width="24" height="24" viewBox="0 0 24 24" fill="none" xmlns="http://www.w3.org/2000/svg">
<g id="SVG">
<path id="Vector" d="M6 10.5C6 7.18629 8.68629 4.5 12 4.5C15.3137 4.5 18 7.18629 18 10.5V17H6V10.5Z" stroke="white" stroke-width="2" stroke-linejoin="round"/>
<path id="Vector_2" d="M4 17H20" stroke="white" stroke-width="2" stroke-linecap="round"/>
<path id="Vector_3" d="M15 17.5C15 19.1569 13.6569 20.5 12 20.5C10.3431 20.5 9 19.1569 9 17.5" stroke="white" stroke-width="2"/>
<path id="Vector_4" d="M13 2C13 1.44772 12.5523 1 12 1C11.4477 1 11 1.44772 11 2V4C11 4.55228 11.4477 5 12 5C12.5523 5 13 4.55228 13 4V2Z" fill="white"/>
</g>
</svg>
